<svg xmlns="http://www.w3.org/2000/svg" width="160" height="64" viewBox="0 0 160 64">
  <g id="Grupo_1018" data-name="Grupo 1018" transform="translate(-1080 -3934.455)">
    <rect id="Retângulo_753" data-name="Retângulo 753" width="160" height="64" transform="translate(1080 3934.455)" fill="none"/>
    <path id="Caminho_2027" data-name="Caminho 2027" d="M-2976.187-3812.923c-.3-.073-.4-.193-.376-.476.025-.365-.119-.882.074-1.06.226-.21.661.149,1.013.239a9.8,9.8,0,0,0,4.767.265,2.525,2.525,0,0,0,1.756-3.479,1.573,1.573,0,0,0-1.453-.944c-.546-.041-1.1-.009-1.647-.009a12.291,12.291,0,0,1-2.36-.133c-1.949-.4-2.619-1.871-2.453-3.726.176-2,1.391-3.118,3.479-3.392a13.709,13.709,0,0,1,5.242.368c.309.078.44.181.406.5-.033.333.108.806-.067.967-.2.183-.607-.129-.931-.206a10.341,10.341,0,0,0-4.78-.214c-1.789.422-2.159,1.565-1.928,3.019a1.575,1.575,0,0,0,1.594,1.315c.585.046,1.171.042,1.756.039.615,0,1.23-.008,1.844.047a2.884,2.884,0,0,1,2.81,2.8,5.546,5.546,0,0,1-.15,1.947,3.555,3.555,0,0,1-3.2,2.512,11.5,11.5,0,0,1-1.691.123A15.3,15.3,0,0,1-2976.187-3812.923Zm10.181.4a6.121,6.121,0,0,0-.844-.008c.234-.569.446-1.1.669-1.627,1.561-3.682,3.133-7.36,4.675-11.049.152-.364.329-.492.7-.443a2.563,2.563,0,0,0,.566,0,.36.36,0,0,1,.415.271q2.692,6.357,5.391,12.708a.556.556,0,0,1,.018.125c-1.531.063-1.534.063-2.092-1.281-.346-.835-.712-1.662-1.023-2.509a.58.58,0,0,0-.67-.431c-.811.011-1.622.01-2.433.009-.595,0-1.193,0-1.788,0-.317,0-.476,0-.3-.394.406-.926.387-.933,1.4-.933h3.064c-.806-1.959-1.6-3.881-2.426-5.891-.7,1.7-1.363,3.314-2.024,4.925-.814,1.982-1.642,3.956-2.425,5.949-.152.389-.337.59-.7.59A1.247,1.247,0,0,1-2966.006-3812.526Zm-17.366-.968a9.561,9.561,0,0,1,.007-1.156,7.243,7.243,0,0,0-1.2-4.748c-1.212-2.009-2.262-4.11-3.423-6.252.531,0,1,0,1.466,0,.261,0,.268.221.346.371,1.146,2.181,2.287,4.366,3.475,6.637l2.687-5c.293-.545.611-1.083.875-1.642a.549.549,0,0,1,.618-.373c.34.025.684.006,1.023.006.1.165-.039.26-.094.364q-2.057,3.836-4.134,7.663a2.056,2.056,0,0,0-.258,1.051c.015,1.225,0,2.449.013,3.674,0,.274-.061.37-.362.374l-.3,0C-2983.372-3812.522-2983.372-3812.607-2983.372-3813.493Zm-61.831.387a4.737,4.737,0,0,1-3.269-3.453,9.581,9.581,0,0,1-.045-5.118,4.777,4.777,0,0,1,4.159-3.653,10.24,10.24,0,0,1,4.33.186c.717.186.717.182.655.979a10.8,10.8,0,0,0-3.938-.477,4.549,4.549,0,0,0-4.592,4.428,9.372,9.372,0,0,0,.313,3.533,4.35,4.35,0,0,0,4.025,3.132,9.372,9.372,0,0,0,2.957-.224.438.438,0,0,0,.4-.511c-.019-1.276.006-2.553-.016-3.828-.007-.35.122-.415.438-.408.29.008.458.015.453.391-.028,1.5-.019,2.99-.006,4.484,0,.253-.057.394-.313.473a9.788,9.788,0,0,1-2.935.469A8.671,8.671,0,0,1-3045.2-3813.106Zm21.675.233a3.86,3.86,0,0,1-3.047-3.442,12.1,12.1,0,0,1-.1-1.655q0-3.449,0-6.9c0-.288-.059-.532.418-.525.434.008.45.181.447.508q-.014,3.5,0,7a6.887,6.887,0,0,0,.262,2.087,3.113,3.113,0,0,0,2.8,2.24,5.678,5.678,0,0,0,1.846-.034,3.266,3.266,0,0,0,2.784-3.2c.1-1.376.028-2.753.053-3.9,0-1.569.015-2.912-.01-4.255-.007-.382.144-.422.474-.431.358-.01.413.122.412.431-.012,2.484-.007,4.969-.008,7.454a6.7,6.7,0,0,1-.248,1.839,3.851,3.851,0,0,1-3.675,2.913c-.3.02-.607.034-.91.034A6.337,6.337,0,0,1-3023.528-3812.873Zm23.05-.009a4.7,4.7,0,0,1-3.8-3.65,9.957,9.957,0,0,1,.057-5.269,4.838,4.838,0,0,1,4.674-3.635,8.95,8.95,0,0,1,3.009.225,4.9,4.9,0,0,1,3.552,4.3,12.748,12.748,0,0,1,.124,2.129,8.508,8.508,0,0,1-.327,2.411,4.817,4.817,0,0,1-4.623,3.626c-.314.016-.627.027-.94.027A8.048,8.048,0,0,1-3000.479-3812.882Zm.887-11.741a4.035,4.035,0,0,0-3.624,2.755,7.6,7.6,0,0,0-.406,2.717,12.151,12.151,0,0,0,.119,1.753,4.236,4.236,0,0,0,3.2,3.712,7.589,7.589,0,0,0,2.3.145,3.994,3.994,0,0,0,3.771-2.762,8.817,8.817,0,0,0,.063-5.44,3.865,3.865,0,0,0-2.964-2.774,6.2,6.2,0,0,0-1.468-.167A8.535,8.535,0,0,0-2999.591-3824.623Zm-30.338,11.141q-1.589-2.377-3.179-4.749a2.432,2.432,0,0,1-.219-.339.5.5,0,0,1,.4-.772,5.493,5.493,0,0,0,2.157-.876,2.7,2.7,0,0,0,.713-3.4,1.862,1.862,0,0,0-1.668-.913c-.664-.015-1.331-.015-2-.015-.639,0-1.278,0-1.916-.011-.416-.01-.321.24-.321.455,0,3.6-.01,7.19.011,10.787,0,.432-.132.539-.548.519-.309-.014-.362-.122-.362-.389q.01-5.9,0-11.793c0-.3.072-.408.4-.4.627.006,1.257,0,1.886,0,.968,0,1.935-.006,2.9.025a2.66,2.66,0,0,1,2.883,3.075,3.284,3.284,0,0,1-1.478,2.681,7.416,7.416,0,0,1-1.972.943l3.913,5.773a3.773,3.773,0,0,1-.706.1C-3029.419-3812.778-3029.581-3812.962-3029.929-3813.482Zm15.749.691c-.379-.008-.407-.161-.407-.456.009-1.948,0-3.9,0-5.845s0-3.9,0-5.844c0-.293.022-.455.4-.448.976.014,1.953.014,2.928.014q.9,0,1.811,0c2.7.014,3.434,1.907,3.217,3.955a3.51,3.51,0,0,1-1.987,2.708,10.49,10.49,0,0,1-3.232,1.071c-.519.1-.228-.331-.339-.494s-.064-.326.215-.365a8.06,8.06,0,0,0,2.769-.854,2.858,2.858,0,0,0,1.505-3.575,2.057,2.057,0,0,0-2.035-1.61c-.735-.019-1.472-.019-2.208-.019-.62,0-1.24,0-1.858-.009-.383-.007-.3.22-.3.424,0,3.61-.006,7.221.007,10.833,0,.366-.065.51-.458.51Z" transform="translate(4161.934 7786.246)" fill="#777" stroke="rgba(0,0,0,0)" stroke-width="1"/>
  </g>
</svg>
